<?xml version="1.0" standalone="no"?>
<!DOCTYPE svg PUBLIC "-//W3C//DTD SVG 20010904//EN"
 "http://www.w3.org/TR/2001/REC-SVG-20010904/DTD/svg10.dtd">
<svg version="1.0" xmlns="http://www.w3.org/2000/svg"
 width="1280.000000pt" height="690.000000pt" viewBox="0 0 1280.000000 690.000000"
 preserveAspectRatio="xMidYMid meet">
<metadata>
Created by potrace 1.15, written by Peter Selinger 2001-2017
</metadata>
<g transform="translate(0.000000,690.000000) scale(0.100000,-0.100000)"
fill="#00ffce" stroke="none">
<path d="M2386 5922 c48 -20 129 -96 143 -134 15 -40 15 -1509 0 -1562 -6 -21
-21 -49 -34 -62 -14 -14 -22 -31 -18 -39 3 -9 -2 -24 -11 -34 -16 -18 -15 -19
10 -25 35 -9 512 -5 544 5 24 7 24 7 2 8 -12 1 -25 8 -28 16 -4 8 -15 15 -25
15 -11 0 -22 -7 -25 -15 -4 -8 -13 -15 -22 -15 -13 0 -13 3 2 19 16 18 15 20
-25 42 -27 15 -50 39 -63 64 -20 38 -21 55 -21 400 l0 360 431 3 432 2 7 -154
c10 -206 1 -551 -15 -596 -6 -19 -28 -50 -49 -68 -20 -19 -30 -31 -23 -27 6 3
12 1 12 -4 0 -6 -4 -11 -9 -11 -16 0 -19 -38 -4 -44 21 -9 523 -5 553 3 23 7
23 8 -12 15 -23 4 -38 13 -38 21 0 8 -6 15 -13 15 -7 0 -32 12 -55 27 -78 50
-74 12 -73 853 1 463 5 759 12 782 6 23 22 47 39 60 17 12 30 30 30 39 0 10
12 27 28 38 l27 20 -335 0 c-213 -1 -319 -4 -292 -10 24 -4 59 -18 78 -29 19
-12 34 -19 34 -17 0 16 75 -64 88 -93 19 -43 28 -354 17 -576 l-7 -144 -432 2
-431 3 0 335 c0 370 3 392 59 435 26 20 32 31 28 50 -3 20 0 25 17 25 11 0 21
5 21 10 0 6 -105 10 -297 9 -290 0 -297 -1 -257 -17z"/>
<path d="M5720 5933 c1 -13 43 -60 67 -72 11 -6 32 -32 45 -58 l23 -48 0 -750
c0 -803 0 -798 -50 -845 -18 -17 -22 -27 -14 -36 7 -9 7 -19 0 -32 -9 -17 -6
-20 21 -26 42 -8 419 -6 441 3 17 6 17 8 3 20 -9 7 -14 16 -12 20 3 4 -11 16
-30 26 -20 11 -45 36 -57 60 -21 38 -22 53 -25 393 l-3 354 28 -6 c120 -24
174 -29 288 -28 218 2 341 46 450 164 89 96 125 194 125 344 0 118 -25 201
-85 282 -80 109 -176 171 -331 214 -74 20 -107 22 -481 26 -222 2 -403 0 -403
-5z m742 -133 c165 -62 265 -260 238 -475 -16 -129 -100 -250 -209 -301 -46
-22 -71 -27 -141 -28 -47 0 -115 5 -153 13 l-67 13 2 392 3 391 60 12 c83 17
198 10 267 -17z"/>
<path d="M8618 5928 c7 -7 22 -13 35 -13 34 -2 67 -24 67 -44 0 -10 17 -31 38
-47 20 -15 43 -35 50 -44 18 -22 506 -757 576 -867 l58 -92 -4 -288 c-4 -306
-8 -334 -56 -377 -15 -13 -20 -26 -16 -41 4 -16 0 -25 -13 -30 -16 -7 -15 -9
7 -15 37 -10 463 -12 478 -2 20 13 -1 42 -50 71 -70 40 -73 54 -76 410 l-3
313 57 92 c183 292 453 709 491 758 43 57 107 114 151 138 20 9 23 18 20 46
-4 31 -2 33 19 28 14 -4 23 -2 23 5 0 8 -72 11 -244 11 -237 0 -244 -1 -239
-19 3 -11 11 -21 18 -23 6 -2 31 -25 54 -51 76 -88 61 -132 -149 -457 -73
-113 -155 -241 -183 -285 -81 -129 -73 -126 -125 -48 -210 320 -380 589 -404
640 -36 75 -32 109 17 152 18 16 31 31 28 34 -3 3 4 11 15 18 11 7 18 19 15
26 -4 10 -71 13 -336 13 -260 0 -328 -3 -319 -12z"/>
<path d="M9920 5929 c0 -5 5 -7 10 -4 6 3 10 8 10 11 0 2 -4 4 -10 4 -5 0 -10
-5 -10 -11z"/>
<path d="M4775 5359 c-200 -33 -334 -159 -335 -312 0 -54 3 -62 34 -93 29 -29
41 -34 79 -34 84 0 116 52 117 192 0 56 4 71 25 96 14 17 25 36 25 43 0 7 3
10 6 6 4 -3 21 1 38 10 39 20 161 23 196 4 87 -46 130 -141 130 -285 l0 -83
-147 -58 c-424 -166 -553 -281 -553 -489 0 -89 12 -131 53 -193 63 -95 174
-140 300 -123 75 11 138 43 255 130 51 39 95 70 98 70 2 0 4 -20 4 -45 0 -57
29 -114 68 -137 40 -24 116 -23 169 1 47 22 135 99 128 112 -3 4 0 17 6 27 7
11 9 27 6 36 -6 16 -9 16 -33 -3 -46 -36 -86 -23 -109 34 -4 11 -11 214 -14
450 l-7 430 -26 51 c-32 60 -74 98 -143 130 -87 40 -245 54 -370 33z m315
-788 l0 -239 -48 -36 c-77 -56 -170 -96 -225 -96 -59 0 -95 18 -139 70 -80 92
-76 230 8 329 24 27 30 39 17 34 -10 -3 -15 -3 -12 1 4 4 15 8 27 11 11 2 37
14 59 28 80 51 262 133 301 136 9 1 12 -53 12 -238z"/>
<path d="M7902 5360 c-103 -22 -199 -96 -282 -218 -19 -29 -38 -52 -42 -52 -5
0 -8 61 -8 136 l0 137 -39 -6 c-22 -3 -104 -31 -183 -62 -190 -77 -219 -92
-212 -110 8 -21 22 -19 20 3 -1 11 6 17 20 17 12 1 29 7 39 15 15 13 17 12 13
-9 -2 -19 4 -25 31 -35 19 -6 44 -24 55 -39 21 -28 21 -36 24 -740 2 -392 0
-736 -3 -766 -5 -40 -14 -62 -33 -81 -17 -17 -27 -38 -27 -57 l0 -30 95 -6
c52 -2 145 -2 206 0 106 5 111 7 106 27 -2 11 -18 30 -35 41 -16 11 -40 33
-51 48 -20 27 -21 44 -24 293 l-4 264 51 -34 c80 -54 141 -71 256 -70 153 0
248 38 358 143 104 99 182 251 207 404 15 92 12 268 -6 355 -8 43 -34 117 -59
168 -54 112 -147 207 -237 241 -65 25 -175 36 -236 23z m73 -219 c52 -23 124
-101 158 -171 49 -100 67 -198 67 -354 0 -159 -14 -235 -59 -325 -55 -109
-123 -165 -220 -180 -146 -23 -265 39 -325 169 -19 42 -21 68 -24 372 l-4 327
58 62 c117 122 227 153 349 100z"/>
<path d="M5590 4085 c0 -15 6 -25 14 -25 19 0 28 14 20 34 -10 25 -34 19 -34
-9z"/>
<path d="M6370 4080 c-13 -8 -12 -10 3 -10 9 0 17 5 17 10 0 12 -1 12 -20 0z"/>
<path d="M2312 2753 c-53 -26 -83 -105 -62 -168 34 -104 179 -128 237 -38 26
39 27 122 2 162 -34 56 -113 76 -177 44z"/>
<path d="M8616 2754 c-19 -7 -85 -34 -145 -59 -98 -41 -109 -48 -96 -62 8 -8
15 -20 15 -26 1 -7 15 -21 33 -32 50 -32 56 -63 56 -327 l1 -237 -50 34 c-117
79 -305 83 -458 10 -183 -87 -339 -323 -373 -565 -12 -81 -6 -221 12 -298 23
-96 85 -207 157 -280 185 -188 445 -202 646 -36 l66 54 0 -85 0 -85 35 0 c35
0 128 34 266 97 71 32 77 37 62 49 -16 12 -16 15 -3 24 11 7 6 10 -21 10 -39
0 -69 24 -91 75 -10 24 -13 213 -16 893 l-3 862 -29 -2 c-15 -1 -44 -8 -64
-14z m-343 -746 c60 -18 148 -108 178 -183 24 -59 24 -66 27 -427 l3 -367 -57
-45 c-68 -53 -154 -81 -217 -71 -172 28 -307 186 -347 405 -16 90 -14 271 5
360 52 246 223 383 408 328z"/>
<path d="M9889 2653 c-17 -38 -71 -165 -121 -283 -50 -118 -133 -314 -185
-435 -53 -121 -149 -346 -215 -499 -143 -337 -208 -465 -263 -523 -23 -23 -36
-44 -31 -46 6 -2 3 -11 -7 -21 -36 -36 -17 -41 161 -44 l172 -2 12 25 c6 14
16 25 22 25 6 0 -10 10 -34 23 -24 12 -53 34 -64 49 -18 25 -19 33 -8 89 6 34
46 140 90 238 l78 176 363 0 364 0 39 -90 c83 -189 119 -289 125 -345 6 -57 5
-60 -29 -94 -28 -28 -32 -37 -24 -56 7 -16 6 -24 -5 -31 -9 -5 83 -8 241 -6
221 2 254 4 251 17 -2 8 -4 24 -5 34 -1 11 -20 37 -44 59 -78 73 -82 81 -392
822 -407 974 -412 985 -437 985 -20 0 -29 -12 -54 -67z m77 -603 c53 -124 121
-286 151 -360 30 -74 57 -141 60 -147 4 -10 -63 -13 -316 -13 -177 0 -321 1
-321 3 0 14 323 748 327 744 1 -2 45 -104 99 -227z"/>
<path d="M160 2670 l-25 -8 28 -1 c15 -1 45 -10 66 -21 21 -10 41 -17 44 -14
12 12 86 -76 99 -117 10 -35 13 -196 13 -759 0 -393 -4 -736 -8 -763 -6 -35
-18 -58 -46 -87 -21 -22 -34 -43 -29 -46 5 -4 7 -17 3 -31 l-6 -25 488 5 c450
3 495 5 581 25 129 29 210 69 287 143 177 169 204 421 67 603 -61 80 -152 136
-281 171 l-44 12 67 31 c90 42 178 127 218 211 43 89 50 208 19 309 -44 147
-161 257 -336 317 -127 43 -181 47 -690 50 -269 2 -501 0 -515 -5z m933 -105
c136 -29 250 -116 305 -233 23 -49 27 -70 27 -147 0 -77 -4 -98 -27 -147 -37
-79 -96 -140 -167 -172 -70 -31 -123 -42 -251 -51 -90 -6 -306 8 -319 21 -10
9 -10 714 0 720 41 25 326 32 432 9z m39 -874 c198 -51 316 -167 349 -345 20
-110 -18 -225 -103 -309 -107 -107 -228 -142 -463 -134 -82 3 -173 11 -201 18
l-51 12 -7 75 c-8 94 -6 499 2 612 l7 85 50 7 c92 12 335 0 417 -21z"/>
<path d="M2900 2670 c-13 -8 -12 -10 5 -11 11 -1 28 -2 38 -1 9 1 17 -2 17 -7
0 -5 20 -31 45 -57 33 -37 47 -62 55 -100 7 -33 10 -299 8 -790 -3 -811 1
-753 -62 -816 -20 -19 -27 -35 -24 -55 l3 -28 262 -3 263 -2 -33 29 c-17 17
-51 47 -75 68 -37 33 -44 45 -52 98 -6 33 -10 198 -10 366 l0 306 38 7 c20 3
64 6 97 6 l61 0 61 -87 c34 -49 176 -245 316 -438 l254 -350 207 0 c193 0 236
6 194 26 -10 5 -26 13 -35 18 -10 4 -18 12 -18 17 0 5 -24 24 -55 42 -72 44
-146 116 -229 227 -115 152 -411 566 -411 574 0 4 23 13 52 20 151 34 292 141
354 267 32 64 37 85 42 168 6 121 -18 208 -82 292 -102 134 -227 192 -461 214
-141 13 -805 13 -825 0z m823 -125 c56 -20 147 -100 182 -159 13 -23 32 -73
41 -111 51 -218 -77 -423 -302 -484 -60 -16 -215 -30 -263 -24 l-41 6 2 386 3
386 55 12 c76 17 262 10 323 -12z"/>
<path d="M5587 2674 c-7 -7 25 -34 92 -79 80 -54 76 -6 76 -850 0 -826 2 -799
-62 -856 -32 -27 -35 -34 -27 -58 l9 -26 215 -3 c118 -1 224 0 235 2 11 3 25
14 32 25 11 17 7 22 -35 44 -91 47 -87 27 -90 453 -3 353 -2 374 15 375 114 3
779 4 811 1 l43 -5 -3 -356 c-3 -387 -5 -398 -62 -450 -19 -18 -23 -27 -14
-33 10 -6 10 -12 0 -29 -7 -11 -11 -23 -9 -25 2 -2 123 -3 268 -2 l264 3 -32
21 c-18 11 -31 23 -28 25 2 3 -10 13 -28 22 -18 10 -43 34 -57 54 l-25 37 0
770 c0 845 -2 820 59 857 17 10 25 19 18 19 -9 0 -7 9 8 27 20 26 20 28 3 35
-24 10 -539 8 -572 -2 -20 -6 -13 -8 30 -9 41 -1 60 -6 72 -19 10 -10 17 -22
17 -26 0 -5 11 -17 25 -28 59 -46 60 -52 63 -430 l3 -348 -435 0 -436 0 0 343
c0 314 2 345 19 384 11 23 29 46 40 53 12 6 19 15 17 19 -3 4 6 19 19 31 19
18 22 26 13 32 -15 9 -542 11 -551 2z"/>
<path d="M10845 2671 c-3 -6 10 -26 30 -45 19 -19 35 -39 35 -43 0 -4 17 -24
38 -44 43 -41 129 -166 436 -636 l216 -333 0 -282 c0 -295 -5 -337 -43 -385
-16 -20 -21 -39 -19 -65 l3 -38 207 0 c194 0 236 5 232 26 -1 4 7 11 17 15 14
5 7 11 -30 27 -39 18 -52 30 -70 69 -21 46 -22 63 -25 349 l-4 301 33 54 c18
30 100 160 182 289 327 513 369 572 451 631 31 23 35 30 22 35 -15 6 -13 11
14 39 l31 32 -23 7 c-36 9 -361 7 -377 -3 -20 -13 -6 -57 29 -95 62 -66 47
-137 -69 -316 -37 -58 -126 -195 -196 -305 -70 -110 -133 -206 -140 -214 -10
-11 -34 19 -129 163 -301 457 -356 551 -356 602 0 36 21 74 51 90 20 10 26 19
22 34 -4 14 0 20 11 20 24 0 19 17 -6 24 -38 10 -566 7 -573 -3z"/>
<path d="M5017 2376 c-60 -120 -149 -235 -230 -296 -38 -28 -46 -41 -47 -66 0
-27 4 -32 31 -38 17 -3 49 -6 70 -6 l38 0 4 -497 c3 -541 4 -546 60 -610 70
-80 188 -104 289 -60 69 31 123 76 109 90 -17 17 -13 47 5 47 12 0 15 6 11 21
-6 24 17 37 36 20 11 -8 17 -3 30 25 21 44 21 44 -5 44 -15 0 -31 -12 -46 -35
-62 -97 -192 -101 -238 -8 -18 35 -19 71 -22 501 l-3 462 48 1 c26 1 55 3 63
4 8 1 29 3 45 5 19 1 23 4 13 7 -24 6 -23 33 1 33 13 0 19 6 18 19 -1 21 -47
31 -138 31 l-49 0 0 204 c0 191 -1 204 -19 209 -15 4 -28 -15 -74 -107z"/>
<path d="M2393 2090 c-263 -106 -273 -111 -271 -139 2 -23 7 -28 30 -28 15 0
39 -6 52 -13 49 -26 51 -42 51 -521 l0 -445 -27 -42 c-29 -43 -33 -58 -22 -86
6 -14 34 -16 240 -15 190 0 234 3 234 14 0 10 -7 12 -31 5 -34 -10 -62 -3 -56
13 2 6 -10 21 -27 32 -17 11 -40 38 -51 60 -19 38 -20 63 -23 608 l-3 567 -37
-1 c-20 0 -47 -4 -59 -9z"/>
<path d="M5316 1991 c-18 -7 -18 -8 -2 -14 25 -10 72 3 54 14 -15 10 -26 10
-52 0z"/>
<path d="M8900 955 c0 -5 5 -17 10 -25 5 -8 10 -10 10 -5 0 6 -5 17 -10 25 -5
8 -10 11 -10 5z"/>
<path d="M5490 826 c0 -22 4 -24 53 -23 28 0 42 2 29 4 -12 3 -27 13 -32 24
-16 28 -50 25 -50 -5z"/>
<path d="M8950 826 c0 -19 4 -23 19 -19 17 4 18 8 8 24 -16 26 -27 24 -27 -5z"/>
<path d="M6183 824 c-25 -11 -12 -25 20 -22 17 2 32 8 32 13 0 11 -33 17 -52
9z"/>
<path d="M9440 811 c0 -5 9 -7 20 -4 11 3 20 7 20 9 0 2 -9 4 -20 4 -11 0 -20
-4 -20 -9z"/>
<path d="M10903 813 c9 -2 23 -2 30 0 6 3 -1 5 -18 5 -16 0 -22 -2 -12 -5z"/>
<path d="M7378 803 c12 -2 30 -2 40 0 9 3 -1 5 -23 4 -22 0 -30 -2 -17 -4z"/>
</g>
</svg>
